<mxfile host="app.diagrams.net" agent="Mozilla/5.0 (Windows NT 10.0; Win64; x64) AppleWebKit/537.36 (KHTML, like Gecko) Chrome/127.0.0.0 Safari/537.36" version="24.7.6">
  <diagram name="Page-1" id="wn-rBvtS8SPe7LIjYlNd">
    <mxGraphModel dx="652" dy="347" grid="1" gridSize="10" guides="1" tooltips="1" connect="1" arrows="1" fold="1" page="1" pageScale="1" pageWidth="10000" pageHeight="10000" math="0" shadow="0">
      <root>
        <mxCell id="0" />
        <mxCell id="1" parent="0" />
        <mxCell id="ipb-SgvgGMUoxBaAEjV2-5" value="" style="rounded=0;whiteSpace=wrap;html=1;movable=0;resizable=0;rotatable=0;deletable=0;editable=0;locked=1;connectable=0;" vertex="1" parent="1">
          <mxGeometry x="280" y="40" width="760" height="680" as="geometry" />
        </mxCell>
        <mxCell id="ipb-SgvgGMUoxBaAEjV2-12" style="edgeStyle=orthogonalEdgeStyle;rounded=0;orthogonalLoop=1;jettySize=auto;html=1;exitX=0.5;exitY=1;exitDx=0;exitDy=0;entryX=0.5;entryY=0;entryDx=0;entryDy=0;" edge="1" parent="1" source="ipb-SgvgGMUoxBaAEjV2-1" target="ipb-SgvgGMUoxBaAEjV2-11">
          <mxGeometry relative="1" as="geometry">
            <Array as="points">
              <mxPoint x="160" y="100" />
              <mxPoint x="260" y="100" />
              <mxPoint x="260" y="20" />
              <mxPoint x="416" y="20" />
            </Array>
          </mxGeometry>
        </mxCell>
        <mxCell id="ipb-SgvgGMUoxBaAEjV2-1" value="" style="rounded=0;whiteSpace=wrap;html=1;" vertex="1" parent="1">
          <mxGeometry x="80" y="40" width="160" height="40" as="geometry" />
        </mxCell>
        <mxCell id="ipb-SgvgGMUoxBaAEjV2-2" value="User Visits church.stablish.io" style="text;html=1;align=center;verticalAlign=middle;whiteSpace=wrap;rounded=0;" vertex="1" parent="1">
          <mxGeometry x="90" y="45" width="140" height="30" as="geometry" />
        </mxCell>
        <mxCell id="ipb-SgvgGMUoxBaAEjV2-10" value="&lt;font style=&quot;font-size: 10px;&quot;&gt;signin/&lt;/font&gt;" style="text;html=1;align=center;verticalAlign=middle;whiteSpace=wrap;rounded=0;" vertex="1" parent="1">
          <mxGeometry x="311" y="150" width="30" height="5" as="geometry" />
        </mxCell>
        <mxCell id="ipb-SgvgGMUoxBaAEjV2-25" style="edgeStyle=orthogonalEdgeStyle;rounded=0;orthogonalLoop=1;jettySize=auto;html=1;exitX=0;exitY=0.5;exitDx=0;exitDy=0;entryX=0.5;entryY=0;entryDx=0;entryDy=0;" edge="1" parent="1" source="ipb-SgvgGMUoxBaAEjV2-11" target="ipb-SgvgGMUoxBaAEjV2-23">
          <mxGeometry relative="1" as="geometry">
            <Array as="points">
              <mxPoint x="311" y="100" />
              <mxPoint x="311" y="140" />
              <mxPoint x="360" y="140" />
            </Array>
          </mxGeometry>
        </mxCell>
        <mxCell id="ipb-SgvgGMUoxBaAEjV2-86" style="edgeStyle=orthogonalEdgeStyle;rounded=0;orthogonalLoop=1;jettySize=auto;html=1;exitX=0.5;exitY=1;exitDx=0;exitDy=0;entryX=0.5;entryY=0;entryDx=0;entryDy=0;" edge="1" parent="1" source="ipb-SgvgGMUoxBaAEjV2-11" target="ipb-SgvgGMUoxBaAEjV2-72">
          <mxGeometry relative="1" as="geometry">
            <mxPoint x="450" y="140.18181818181813" as="targetPoint" />
            <Array as="points">
              <mxPoint x="416" y="160" />
              <mxPoint x="470" y="160" />
              <mxPoint x="470" y="140" />
              <mxPoint x="531" y="140" />
            </Array>
          </mxGeometry>
        </mxCell>
        <mxCell id="ipb-SgvgGMUoxBaAEjV2-11" value="" style="rhombus;whiteSpace=wrap;html=1;" vertex="1" parent="1">
          <mxGeometry x="331" y="60" width="170" height="80" as="geometry" />
        </mxCell>
        <mxCell id="ipb-SgvgGMUoxBaAEjV2-4" value="Checks Users login/sigin session existence&amp;nbsp;" style="text;html=1;align=center;verticalAlign=middle;whiteSpace=wrap;rounded=0;" vertex="1" parent="1">
          <mxGeometry x="364.75" y="85" width="102.5" height="30" as="geometry" />
        </mxCell>
        <mxCell id="ipb-SgvgGMUoxBaAEjV2-23" value="" style="rounded=1;whiteSpace=wrap;html=1;" vertex="1" parent="1">
          <mxGeometry x="311" y="160" width="98" height="30" as="geometry" />
        </mxCell>
        <mxCell id="ipb-SgvgGMUoxBaAEjV2-26" value="&lt;font style=&quot;font-size: 10px;&quot;&gt;signin.html&lt;/font&gt;" style="text;html=1;align=center;verticalAlign=middle;whiteSpace=wrap;rounded=0;" vertex="1" parent="1">
          <mxGeometry x="331" y="158" width="60" height="13" as="geometry" />
        </mxCell>
        <mxCell id="ipb-SgvgGMUoxBaAEjV2-27" value="&lt;font style=&quot;font-size: 11px;&quot;&gt;&lt;b&gt;Custom | Google&lt;/b&gt;&lt;/font&gt;" style="text;html=1;align=center;verticalAlign=middle;whiteSpace=wrap;rounded=0;" vertex="1" parent="1">
          <mxGeometry x="310" y="175" width="100" height="14" as="geometry" />
        </mxCell>
        <mxCell id="ipb-SgvgGMUoxBaAEjV2-28" value="Auth" style="shape=cylinder3;whiteSpace=wrap;html=1;boundedLbl=1;backgroundOutline=1;size=5.416666666666714;" vertex="1" parent="1">
          <mxGeometry x="324.75" y="260" width="40" height="30" as="geometry" />
        </mxCell>
        <mxCell id="ipb-SgvgGMUoxBaAEjV2-29" value="Google" style="shape=cylinder3;whiteSpace=wrap;html=1;boundedLbl=1;backgroundOutline=1;size=5.416666666666714;" vertex="1" parent="1">
          <mxGeometry x="371" y="250" width="40" height="30" as="geometry" />
        </mxCell>
        <mxCell id="ipb-SgvgGMUoxBaAEjV2-30" style="edgeStyle=orthogonalEdgeStyle;rounded=0;orthogonalLoop=1;jettySize=auto;html=1;exitX=0.25;exitY=1;exitDx=0;exitDy=0;entryX=0.5;entryY=0;entryDx=0;entryDy=0;entryPerimeter=0;" edge="1" parent="1" source="ipb-SgvgGMUoxBaAEjV2-27" target="ipb-SgvgGMUoxBaAEjV2-28">
          <mxGeometry relative="1" as="geometry">
            <Array as="points">
              <mxPoint x="335" y="200" />
              <mxPoint x="311" y="200" />
              <mxPoint x="311" y="250" />
              <mxPoint x="345" y="250" />
            </Array>
          </mxGeometry>
        </mxCell>
        <mxCell id="ipb-SgvgGMUoxBaAEjV2-33" value="Req" style="swimlane;startSize=15;fontStyle=0;fontSize=8;align=right;" vertex="1" collapsed="1" parent="1">
          <mxGeometry x="311" y="200" width="30" height="25" as="geometry">
            <mxRectangle x="290" y="200" width="60" height="40" as="alternateBounds" />
          </mxGeometry>
        </mxCell>
        <mxCell id="ipb-SgvgGMUoxBaAEjV2-34" value="&lt;font style=&quot;font-size: 7px;&quot;&gt;&lt;font style=&quot;font-size: 7px;&quot;&gt;{&lt;/font&gt;&lt;span style=&quot;background-color: initial; font-size: 7px;&quot;&gt;email:&amp;lt;email&amp;gt;,&lt;/span&gt;&lt;/font&gt;&lt;div style=&quot;font-size: 7px;&quot;&gt;&lt;div style=&quot;font-size: 7px;&quot;&gt;&lt;font style=&quot;font-size: 7px;&quot;&gt;&lt;font style=&quot;font-size: 7px;&quot;&gt;password:&amp;lt;pwd&amp;gt;&lt;/font&gt;&lt;span style=&quot;background-color: initial; font-size: 7px;&quot;&gt;}&lt;/span&gt;&lt;/font&gt;&lt;/div&gt;&lt;/div&gt;" style="text;html=1;align=left;verticalAlign=middle;resizable=0;points=[];autosize=1;strokeColor=none;fillColor=none;fontSize=7;" vertex="1" parent="ipb-SgvgGMUoxBaAEjV2-33">
          <mxGeometry x="-0.1200000000000001" y="15" width="80" height="30" as="geometry" />
        </mxCell>
        <mxCell id="ipb-SgvgGMUoxBaAEjV2-42" value="Req" style="swimlane;startSize=15;fontStyle=0;fontSize=8;align=right;" vertex="1" collapsed="1" parent="1">
          <mxGeometry x="385" y="199" width="30" height="25" as="geometry">
            <mxRectangle x="385" y="199" width="56" height="41" as="alternateBounds" />
          </mxGeometry>
        </mxCell>
        <mxCell id="ipb-SgvgGMUoxBaAEjV2-43" value="&lt;font style=&quot;font-size: 7px;&quot;&gt;&lt;font style=&quot;font-size: 7px;&quot;&gt;{&lt;/font&gt;&lt;span style=&quot;background-color: initial; font-size: 7px;&quot;&gt;email:&amp;lt;email&amp;gt;}&lt;/span&gt;&lt;/font&gt;" style="text;html=1;align=left;verticalAlign=middle;resizable=0;points=[];autosize=1;strokeColor=none;fillColor=none;fontSize=7;" vertex="1" parent="ipb-SgvgGMUoxBaAEjV2-42">
          <mxGeometry x="-0.1200000000000001" y="15" width="70" height="20" as="geometry" />
        </mxCell>
        <mxCell id="ipb-SgvgGMUoxBaAEjV2-44" style="edgeStyle=orthogonalEdgeStyle;rounded=0;orthogonalLoop=1;jettySize=auto;html=1;exitX=0;exitY=0.5;exitDx=0;exitDy=0;exitPerimeter=0;entryX=0.5;entryY=0;entryDx=0;entryDy=0;entryPerimeter=0;" edge="1" parent="1" source="ipb-SgvgGMUoxBaAEjV2-29" target="ipb-SgvgGMUoxBaAEjV2-28">
          <mxGeometry relative="1" as="geometry">
            <Array as="points">
              <mxPoint x="371" y="260" />
              <mxPoint x="361" y="260" />
              <mxPoint x="361" y="250" />
              <mxPoint x="345" y="250" />
            </Array>
          </mxGeometry>
        </mxCell>
        <mxCell id="ipb-SgvgGMUoxBaAEjV2-45" style="edgeStyle=orthogonalEdgeStyle;rounded=0;orthogonalLoop=1;jettySize=auto;html=1;exitX=0.75;exitY=1;exitDx=0;exitDy=0;entryX=0.5;entryY=0;entryDx=0;entryDy=0;entryPerimeter=0;" edge="1" parent="1" source="ipb-SgvgGMUoxBaAEjV2-27" target="ipb-SgvgGMUoxBaAEjV2-29">
          <mxGeometry relative="1" as="geometry">
            <Array as="points">
              <mxPoint x="385" y="240" />
              <mxPoint x="391" y="240" />
            </Array>
          </mxGeometry>
        </mxCell>
        <mxCell id="ipb-SgvgGMUoxBaAEjV2-53" style="edgeStyle=orthogonalEdgeStyle;rounded=0;orthogonalLoop=1;jettySize=auto;html=1;exitX=0;exitY=0.5;exitDx=0;exitDy=0;exitPerimeter=0;entryX=0.008;entryY=-0.2;entryDx=0;entryDy=0;entryPerimeter=0;" edge="1" parent="1" source="ipb-SgvgGMUoxBaAEjV2-28" target="ipb-SgvgGMUoxBaAEjV2-27">
          <mxGeometry relative="1" as="geometry">
            <Array as="points">
              <mxPoint x="290" y="275" />
              <mxPoint x="290" y="172" />
            </Array>
          </mxGeometry>
        </mxCell>
        <mxCell id="ipb-SgvgGMUoxBaAEjV2-54" value="" style="endArrow=none;dashed=1;html=1;rounded=0;exitX=-0.006;exitY=0.407;exitDx=0;exitDy=0;exitPerimeter=0;" edge="1" parent="1" source="ipb-SgvgGMUoxBaAEjV2-23">
          <mxGeometry width="50" height="50" relative="1" as="geometry">
            <mxPoint x="370" y="200" as="sourcePoint" />
            <mxPoint x="410" y="172" as="targetPoint" />
          </mxGeometry>
        </mxCell>
        <mxCell id="ipb-SgvgGMUoxBaAEjV2-70" value="&lt;font style=&quot;font-size: 10px;&quot;&gt;signup/&lt;/font&gt;" style="text;html=1;align=center;verticalAlign=middle;whiteSpace=wrap;rounded=0;" vertex="1" parent="1">
          <mxGeometry x="480.99" y="149.5" width="30" height="5" as="geometry" />
        </mxCell>
        <mxCell id="ipb-SgvgGMUoxBaAEjV2-71" value="" style="rounded=1;whiteSpace=wrap;html=1;" vertex="1" parent="1">
          <mxGeometry x="480.99" y="159.5" width="98" height="30" as="geometry" />
        </mxCell>
        <mxCell id="ipb-SgvgGMUoxBaAEjV2-72" value="&lt;font style=&quot;font-size: 10px;&quot;&gt;signup.html&lt;/font&gt;" style="text;html=1;align=center;verticalAlign=middle;whiteSpace=wrap;rounded=0;" vertex="1" parent="1">
          <mxGeometry x="500.99" y="157.5" width="60" height="13" as="geometry" />
        </mxCell>
        <mxCell id="ipb-SgvgGMUoxBaAEjV2-73" value="&lt;font style=&quot;font-size: 11px;&quot;&gt;&lt;b&gt;Custom | Google&lt;/b&gt;&lt;/font&gt;" style="text;html=1;align=center;verticalAlign=middle;whiteSpace=wrap;rounded=0;" vertex="1" parent="1">
          <mxGeometry x="479.99" y="174.5" width="100" height="14" as="geometry" />
        </mxCell>
        <mxCell id="ipb-SgvgGMUoxBaAEjV2-74" value="Auth" style="shape=cylinder3;whiteSpace=wrap;html=1;boundedLbl=1;backgroundOutline=1;size=5.416666666666714;" vertex="1" parent="1">
          <mxGeometry x="494.74" y="259.5" width="40" height="30" as="geometry" />
        </mxCell>
        <mxCell id="ipb-SgvgGMUoxBaAEjV2-75" value="Google" style="shape=cylinder3;whiteSpace=wrap;html=1;boundedLbl=1;backgroundOutline=1;size=5.416666666666714;" vertex="1" parent="1">
          <mxGeometry x="540.99" y="249.5" width="40" height="30" as="geometry" />
        </mxCell>
        <mxCell id="ipb-SgvgGMUoxBaAEjV2-76" style="edgeStyle=orthogonalEdgeStyle;rounded=0;orthogonalLoop=1;jettySize=auto;html=1;exitX=0.25;exitY=1;exitDx=0;exitDy=0;entryX=0.5;entryY=0;entryDx=0;entryDy=0;entryPerimeter=0;" edge="1" parent="1" source="ipb-SgvgGMUoxBaAEjV2-73" target="ipb-SgvgGMUoxBaAEjV2-74">
          <mxGeometry relative="1" as="geometry">
            <Array as="points">
              <mxPoint x="504.99" y="199.5" />
              <mxPoint x="480.99" y="199.5" />
              <mxPoint x="480.99" y="249.5" />
              <mxPoint x="514.99" y="249.5" />
            </Array>
          </mxGeometry>
        </mxCell>
        <mxCell id="ipb-SgvgGMUoxBaAEjV2-77" value="Req" style="swimlane;startSize=15;fontStyle=0;fontSize=8;align=right;" vertex="1" collapsed="1" parent="1">
          <mxGeometry x="480.99" y="199.5" width="30" height="25" as="geometry">
            <mxRectangle x="480.99" y="199.5" width="60" height="40" as="alternateBounds" />
          </mxGeometry>
        </mxCell>
        <mxCell id="ipb-SgvgGMUoxBaAEjV2-78" value="&lt;font style=&quot;font-size: 7px;&quot;&gt;&lt;font style=&quot;font-size: 7px;&quot;&gt;{&lt;/font&gt;&lt;span style=&quot;background-color: initial; font-size: 7px;&quot;&gt;email:&amp;lt;email&amp;gt;,&lt;/span&gt;&lt;/font&gt;&lt;div style=&quot;font-size: 7px;&quot;&gt;&lt;div style=&quot;font-size: 7px;&quot;&gt;&lt;font style=&quot;font-size: 7px;&quot;&gt;&lt;font style=&quot;font-size: 7px;&quot;&gt;password:&amp;lt;pwd&amp;gt;&lt;/font&gt;&lt;span style=&quot;background-color: initial; font-size: 7px;&quot;&gt;}&lt;/span&gt;&lt;/font&gt;&lt;/div&gt;&lt;/div&gt;" style="text;html=1;align=left;verticalAlign=middle;resizable=0;points=[];autosize=1;strokeColor=none;fillColor=none;fontSize=7;" vertex="1" parent="ipb-SgvgGMUoxBaAEjV2-77">
          <mxGeometry x="-0.1200000000000001" y="15" width="80" height="30" as="geometry" />
        </mxCell>
        <mxCell id="ipb-SgvgGMUoxBaAEjV2-79" value="Req" style="swimlane;startSize=15;fontStyle=0;fontSize=8;align=right;" vertex="1" collapsed="1" parent="1">
          <mxGeometry x="554.99" y="198.5" width="30" height="25" as="geometry">
            <mxRectangle x="554.99" y="198.5" width="56" height="41" as="alternateBounds" />
          </mxGeometry>
        </mxCell>
        <mxCell id="ipb-SgvgGMUoxBaAEjV2-80" value="&lt;font style=&quot;font-size: 7px;&quot;&gt;&lt;font style=&quot;font-size: 7px;&quot;&gt;{&lt;/font&gt;&lt;span style=&quot;background-color: initial; font-size: 7px;&quot;&gt;email:&amp;lt;email&amp;gt;}&lt;/span&gt;&lt;/font&gt;" style="text;html=1;align=left;verticalAlign=middle;resizable=0;points=[];autosize=1;strokeColor=none;fillColor=none;fontSize=7;" vertex="1" parent="ipb-SgvgGMUoxBaAEjV2-79">
          <mxGeometry x="-0.1200000000000001" y="15" width="70" height="20" as="geometry" />
        </mxCell>
        <mxCell id="ipb-SgvgGMUoxBaAEjV2-81" style="edgeStyle=orthogonalEdgeStyle;rounded=0;orthogonalLoop=1;jettySize=auto;html=1;exitX=0;exitY=0.5;exitDx=0;exitDy=0;exitPerimeter=0;entryX=0.5;entryY=0;entryDx=0;entryDy=0;entryPerimeter=0;" edge="1" parent="1" source="ipb-SgvgGMUoxBaAEjV2-75" target="ipb-SgvgGMUoxBaAEjV2-74">
          <mxGeometry relative="1" as="geometry">
            <Array as="points">
              <mxPoint x="540.99" y="259.5" />
              <mxPoint x="530.99" y="259.5" />
              <mxPoint x="530.99" y="249.5" />
              <mxPoint x="514.99" y="249.5" />
            </Array>
          </mxGeometry>
        </mxCell>
        <mxCell id="ipb-SgvgGMUoxBaAEjV2-82" style="edgeStyle=orthogonalEdgeStyle;rounded=0;orthogonalLoop=1;jettySize=auto;html=1;exitX=0.75;exitY=1;exitDx=0;exitDy=0;entryX=0.5;entryY=0;entryDx=0;entryDy=0;entryPerimeter=0;" edge="1" parent="1" source="ipb-SgvgGMUoxBaAEjV2-73" target="ipb-SgvgGMUoxBaAEjV2-75">
          <mxGeometry relative="1" as="geometry">
            <Array as="points">
              <mxPoint x="554.99" y="239.5" />
              <mxPoint x="560.99" y="239.5" />
            </Array>
          </mxGeometry>
        </mxCell>
        <mxCell id="ipb-SgvgGMUoxBaAEjV2-83" style="edgeStyle=orthogonalEdgeStyle;rounded=0;orthogonalLoop=1;jettySize=auto;html=1;exitX=0;exitY=0.5;exitDx=0;exitDy=0;exitPerimeter=0;entryX=0.008;entryY=-0.2;entryDx=0;entryDy=0;entryPerimeter=0;" edge="1" parent="1" source="ipb-SgvgGMUoxBaAEjV2-74" target="ipb-SgvgGMUoxBaAEjV2-73">
          <mxGeometry relative="1" as="geometry">
            <Array as="points">
              <mxPoint x="459.99" y="274.5" />
              <mxPoint x="459.99" y="171.5" />
            </Array>
          </mxGeometry>
        </mxCell>
        <mxCell id="ipb-SgvgGMUoxBaAEjV2-84" value="" style="endArrow=none;dashed=1;html=1;rounded=0;exitX=-0.006;exitY=0.407;exitDx=0;exitDy=0;exitPerimeter=0;entryX=1;entryY=0.397;entryDx=0;entryDy=0;entryPerimeter=0;" edge="1" parent="1" source="ipb-SgvgGMUoxBaAEjV2-71" target="ipb-SgvgGMUoxBaAEjV2-71">
          <mxGeometry width="50" height="50" relative="1" as="geometry">
            <mxPoint x="539.99" y="199.5" as="sourcePoint" />
            <mxPoint x="589.99" y="149.5" as="targetPoint" />
          </mxGeometry>
        </mxCell>
        <mxCell id="ipb-SgvgGMUoxBaAEjV2-88" value="" style="rounded=1;whiteSpace=wrap;html=1;" vertex="1" parent="1">
          <mxGeometry x="300" y="320" width="220" height="140" as="geometry" />
        </mxCell>
        <mxCell id="ipb-SgvgGMUoxBaAEjV2-93" value="&lt;span style=&quot;font-size: 10px;&quot;&gt;/#&lt;/span&gt;" style="text;html=1;align=center;verticalAlign=middle;whiteSpace=wrap;rounded=0;" vertex="1" parent="1">
          <mxGeometry x="318" y="311" width="8" height="5" as="geometry" />
        </mxCell>
        <mxCell id="ipb-SgvgGMUoxBaAEjV2-94" value="&lt;span style=&quot;font-size: 10px;&quot;&gt;dashboard.html&lt;/span&gt;" style="text;html=1;align=center;verticalAlign=middle;whiteSpace=wrap;rounded=0;" vertex="1" parent="1">
          <mxGeometry x="372.5" y="326" width="75" height="5" as="geometry" />
        </mxCell>
        <mxCell id="ipb-SgvgGMUoxBaAEjV2-95" value="" style="endArrow=classic;html=1;rounded=0;exitX=0.997;exitY=0.396;exitDx=0;exitDy=0;exitPerimeter=0;" edge="1" parent="1" source="ipb-SgvgGMUoxBaAEjV2-23">
          <mxGeometry width="50" height="50" relative="1" as="geometry">
            <mxPoint x="460" y="270" as="sourcePoint" />
            <mxPoint x="410" y="320" as="targetPoint" />
            <Array as="points">
              <mxPoint x="450" y="172" />
              <mxPoint x="450" y="290" />
              <mxPoint x="410" y="290" />
            </Array>
          </mxGeometry>
        </mxCell>
        <mxCell id="ipb-SgvgGMUoxBaAEjV2-96" value="" style="endArrow=none;html=1;rounded=0;entryX=1;entryY=0.401;entryDx=0;entryDy=0;entryPerimeter=0;" edge="1" parent="1" target="ipb-SgvgGMUoxBaAEjV2-71">
          <mxGeometry width="50" height="50" relative="1" as="geometry">
            <mxPoint x="410" y="290" as="sourcePoint" />
            <mxPoint x="581.02" y="170" as="targetPoint" />
            <Array as="points">
              <mxPoint x="450" y="290" />
              <mxPoint x="450" y="300" />
              <mxPoint x="620" y="300" />
              <mxPoint x="620" y="172" />
              <mxPoint x="580" y="172" />
            </Array>
          </mxGeometry>
        </mxCell>
        <mxCell id="ipb-SgvgGMUoxBaAEjV2-99" value="" style="endArrow=classic;html=1;rounded=0;entryX=0.5;entryY=0;entryDx=0;entryDy=0;" edge="1" parent="1" target="ipb-SgvgGMUoxBaAEjV2-88">
          <mxGeometry width="50" height="50" relative="1" as="geometry">
            <mxPoint x="500" y="100" as="sourcePoint" />
            <mxPoint x="370" y="310" as="targetPoint" />
            <Array as="points">
              <mxPoint x="630" y="100" />
              <mxPoint x="630" y="310" />
              <mxPoint x="440" y="310" />
              <mxPoint x="440" y="300" />
              <mxPoint x="410" y="300" />
            </Array>
          </mxGeometry>
        </mxCell>
        <mxCell id="ipb-SgvgGMUoxBaAEjV2-100" value="&lt;b&gt;Yes&lt;/b&gt;" style="text;html=1;align=center;verticalAlign=middle;whiteSpace=wrap;rounded=0;" vertex="1" parent="1">
          <mxGeometry x="498.74" y="85" width="25.26" height="15" as="geometry" />
        </mxCell>
        <mxCell id="ipb-SgvgGMUoxBaAEjV2-101" value="&lt;b&gt;No&lt;/b&gt;" style="text;html=1;align=center;verticalAlign=middle;whiteSpace=wrap;rounded=0;" vertex="1" parent="1">
          <mxGeometry x="305" y="85" width="25.26" height="15" as="geometry" />
        </mxCell>
        <mxCell id="ipb-SgvgGMUoxBaAEjV2-102" value="&lt;b&gt;No&lt;/b&gt;" style="text;html=1;align=center;verticalAlign=middle;whiteSpace=wrap;rounded=0;" vertex="1" parent="1">
          <mxGeometry x="413" y="146" width="25.26" height="15" as="geometry" />
        </mxCell>
      </root>
    </mxGraphModel>
  </diagram>
</mxfile>
